<svg xmlns="http://www.w3.org/2000/svg" version="1.1" xmlns:xlink="http://www.w3.org/1999/xlink" xmlns:svgjs="http://svgjs.com/svgjs" width="512" height="512"><svg xmlns="http://www.w3.org/2000/svg" class="ionicon" viewBox="0 0 512 512"><title>Code</title><path d="M160 389a20.91 20.91 0 01-13.82-5.2l-128-112a21 21 0 010-31.6l128-112a21 21 0 0127.66 31.61L63.89 256l109.94 96.19A21 21 0 01160 389zM352 389a21 21 0 01-13.84-36.81L448.11 256l-109.94-96.19a21 21 0 0127.66-31.61l128 112a21 21 0 010 31.6l-128 112A20.89 20.89 0 01352 389z"></path></svg><style>@media (prefers-color-scheme: light) { :root { filter: none; } }
@media (prefers-color-scheme: dark) { :root { filter: contrast(0.3846153846153846) brightness(4.5); } }
</style></svg>